{
  "accessors": [
    {
      "bufferView": 0,
      "byteOffset": 0,
      "componentType": 5126,
      "normalized": false,
      "count": 317604,
      "type": "VEC3",
      "max": [
        1.7692484855651855,
        2.1286227703094482,
        2.183931350708008
      ],
      "min": [
        -1.7692484855651855,
        -2.1286227703094482,
        -2.183931350708008
      ]
    },
    {
      "bufferView": 1,
      "byteOffset": 0,
      "componentType": 5126,
      "normalized": false,
      "count": 317604,
      "type": "VEC3"
    }
  ],
  "asset": {
    "generator": "pygltflib@v1.14.6",
    "version": "2.0"
  },
  "bufferViews": [
    {
      "buffer": 0,
      "byteOffset": 0,
      "byteLength": 3811248,
      "target": 34962
    },
    {
      "buffer": 0,
      "byteOffset": 3811248,
      "byteLength": 3811248,
      "target": 34962
    }
  ],
  "buffers": [
    {
      "uri": "display_mesh.bin",
      "byteLength": 7622496
    }
  ],
  "meshes": [
    {
      "primitives": [
        {
          "attributes": {
            "POSITION": 0,
            "NORMAL": 1
          },
          "mode": 4
        }
      ]
    }
  ],
  "nodes": [
    {
      "mesh": 0
    }
  ],
  "scene": 0,
  "scenes": [
    {
      "nodes": [
        0
      ]
    }
  ]
}