{
  "accessors": [
    {
      "bufferView": 0,
      "byteOffset": 0,
      "componentType": 5126,
      "normalized": false,
      "count": 2766,
      "type": "VEC3",
      "max": [
        5.7808661460876465,
        2.5064356327056885,
        -3.4925246238708496
      ],
      "min": [
        2.178105354309082,
        -1.51376211643219,
        -7.041624546051025
      ]
    },
    {
      "bufferView": 1,
      "byteOffset": 0,
      "componentType": 5126,
      "normalized": false,
      "count": 2766,
      "type": "VEC3"
    }
  ],
  "asset": {
    "generator": "pygltflib@v1.14.5",
    "version": "2.0"
  },
  "bufferViews": [
    {
      "buffer": 0,
      "byteOffset": 0,
      "byteLength": 33192,
      "target": 34962
    },
    {
      "buffer": 0,
      "byteOffset": 33192,
      "byteLength": 33192,
      "target": 34962
    }
  ],
  "buffers": [
    {
      "uri": "display_mesh.bin",
      "byteLength": 66384
    }
  ],
  "meshes": [
    {
      "primitives": [
        {
          "attributes": {
            "POSITION": 0,
            "NORMAL": 1
          },
          "mode": 4
        }
      ]
    }
  ],
  "nodes": [
    {
      "mesh": 0
    }
  ],
  "scene": 0,
  "scenes": [
    {
      "nodes": [
        0
      ]
    }
  ]
}