{
  "accessors": [
    {
      "bufferView": 0,
      "byteOffset": 0,
      "componentType": 5123,
      "count": 2754,
      "type": "SCALAR",
      "max": [
        2753
      ],
      "min": [
        0
      ]
    },
    {
      "bufferView": 1,
      "byteOffset": 0,
      "componentType": 5126,
      "count": 2754,
      "type": "VEC3",
      "max": [
        6.194494724273682,
        7.610138893127441,
        3.579008102416992
      ],
      "min": [
        3.329592227935791,
        3.5625226497650146,
        -1.9783189296722412
      ],
      "name": "POSITION"
    },
    {
      "bufferView": 1,
      "byteOffset": 12,
      "componentType": 5126,
      "count": 2754,
      "type": "VEC3",
      "max": [
        0.0071533299051225185,
        0.9639275670051575,
        0.9755549430847168
      ],
      "min": [
        -0.9989128708839417,
        -0.9973921179771423,
        -0.7889667749404907
      ],
      "name": "NORMAL"
    }
  ],
  "asset": {
    "generator": "Aspose.3D 21.11",
    "version": "2.0"
  },
  "buffers": [
    {
      "uri": "data:application/octet-stream;base64,",
      "byteLength": 71612
    }
  ],
  "bufferViews": [
    {
      "buffer": 0,
      "byteOffset": 0,
      "byteLength": 5508,
      "target": 34963
    },
    {
      "buffer": 0,
      "byteOffset": 5512,
      "byteLength": 66096,
      "byteStride": 24,
      "target": 34962
    }
  ],
  "meshes": [
    {
      "primitives": [
        {
          "attributes": {
            "POSITION": 1,
            "NORMAL": 2
          },
          "indices": 0,
          "mode": 4
        }
      ],
      "name": ""
    }
  ],
  "nodes": [
    {
      "mesh": 0,
      "name": ""
    }
  ],
  "scene": 0,
  "scenes": [
    {
      "nodes": [
        0
      ]
    }
  ]
}