{
  "accessors": [
    {
      "bufferView": 0,
      "byteOffset": 0,
      "componentType": 5126,
      "normalized": false,
      "count": 2754,
      "type": "VEC3",
      "max": [
        1.381860613822937,
        2.347867965698242,
        1.767919898033142
      ],
      "min": [
        -1.381860613822937,
        -2.347867965698242,
        -1.767919898033142
      ]
    },
    {
      "bufferView": 1,
      "byteOffset": 0,
      "componentType": 5126,
      "normalized": false,
      "count": 2754,
      "type": "VEC3"
    }
  ],
  "asset": {
    "generator": "pygltflib@v1.14.5",
    "version": "2.0"
  },
  "bufferViews": [
    {
      "buffer": 0,
      "byteOffset": 0,
      "byteLength": 33048,
      "target": 34962
    },
    {
      "buffer": 0,
      "byteOffset": 33048,
      "byteLength": 33048,
      "target": 34962
    }
  ],
  "buffers": [
    {
      "uri": "new_chestie.bin",
      "byteLength": 66096
    }
  ],
  "meshes": [
    {
      "primitives": [
        {
          "attributes": {
            "POSITION": 0,
            "NORMAL": 1
          },
          "mode": 4
        }
      ]
    }
  ],
  "nodes": [
    {
      "mesh": 0
    }
  ],
  "scene": 0,
  "scenes": [
    {
      "nodes": [
        0
      ]
    }
  ]
}