
    {
      "scenes" : [
        {
          "nodes" : [ 0 ]
        }
      ],

      "nodes" : [
        {
          "mesh" : 0
        }
      ],

      "meshes" : [
        {
          "primitives" : [ {
            "attributes" : {
              "POSITION" : 1
            },
            "indices" : 0
          } ]
        }
      ],

      "buffers" : [
        {
          "uri": "out.bin",
          "byteLength" : 16752
        }
      ],
      "bufferViews" : [
        {
          "buffer" : 0,
          "byteOffset" : 0,
          "byteLength" : 11016,
          "target" : 34963
        },
        {
          "buffer" : 0,
          "byteOffset" : 11016,
          "byteLength" : 5736,
          "target" : 34962
        }
      ],
      "accessors" : [
        {
          "bufferView" : 0,
          "byteOffset" : 0,
          "componentType" : 5125,
          "count" : 2754,
          "type" : "SCALAR",
          "max" : [ 477 ],
          "min" : [ 0 ]
        },
        {
          "bufferView" : 1,
          "byteOffset" : 0,
          "componentType" : 5126,
          "count" : 478,
          "type" : "VEC3",
          "min" : [-1.381860, -2.347860, -1.767910],
          "max" : [1.381860, 2.347860, 1.767910]
        }
      ],

      "asset" : {
        "version" : "2.0"
      },

      "materials": [
        {
          "pbrMetallicRoughness": {
            "baseColorFactor": [
              0.1, 0.1, 0.9, 0.1
            ],
            "metallicFactor": 0.0,
            "roughnessFactor": 0.0
          }
        }
      ]
    }
    